Simulation
nRows=42
nColumns=15
endheader
time  TH_x TH_y TH_z SC_y  SC_z  SC_x  AC_y  AC_z  AC_x  GH_y  GH_z  GH_yy  EL_x  PS_y
0.0  0.000000  0.000000  0.000000  -40.05759967764543  -7.191713661212307  -6.754287939176945  45.979490559908406  17.17708495148272  -1.7992330740461266  22.54011913738814  3.7050917175864893  -0.7562356504621668  22.683973723765956  120.000000
0.028900000000000006  0.000000  0.000000  0.000000  -40.141843578151466  -6.203941895166104  -9.34498514861692  45.95911675024561  18.383500624166587  1.307499828430937  -41.08539319228383  0.19812106430547627  60.35650260105309  22.05384870392446  120.000000
0.05780000000000001  0.000000  0.000000  0.000000  -40.24686001157598  -5.096041170016183  -11.590930034505842  45.97731949039951  19.346497419503194  4.202907565603148  -154.7347522756691  3.518975521610252  171.5119382160866  21.491312092178653  120.000000
0.08670000000000001  0.000000  0.000000  0.000000  -40.27893199987618  -4.101631013791188  -13.472245783531417  46.09722158531142  20.143500875520406  6.753479110600137  -157.10785862012418  7.048073309588984  171.41254911065872  20.937757500260158  120.000000
0.11560000000000002  0.000000  0.000000  0.000000  -40.24189095163499  -3.2545212057105406  -15.022845383442444  46.34644389441188  20.796910749705372  8.954927111635367  -158.62039389950957  10.459080763944595  170.4839019059452  20.38344796655814  120.000000
0.14450000000000002  0.000000  0.000000  0.000000  -40.1722079329609  -2.5353308634270717  -16.275372215662006  46.71863949299241  21.304159828890935  10.840709645183889  -160.00538305996096  13.7218209155991  169.47416443862866  19.852002790883745  120.000000
0.17340000000000003  0.000000  0.000000  0.000000  -40.08774345171664  -1.9280162457961092  -17.265944395602276  47.19468634121585  21.660838038760176  12.441262802644848  -161.3809665430855  16.820275458984412  168.5105180346937  19.35647883281144  120.000000
0.20230000000000004  0.000000  0.000000  0.000000  -39.99990827767471  -1.4168317494292741  -18.029004656421794  47.75408133821241  21.868577469277046  13.783893046472018  -162.7748859412374  19.74322146032231  167.63477118238498  18.903457212581557  120.000000
0.23120000000000004  0.000000  0.000000  0.000000  -39.91397460074436  -0.9848019758074045  -18.5951131365257  48.36914408792302  21.93144363096942  14.899235628448743  -164.18063837092723  22.48051588823778  166.85257266405137  18.50012213487396  120.000000
0.26010000000000005  0.000000  0.000000  0.000000  -39.829997962884434  -0.6165889229663163  -18.991251378406798  49.01184690848272  21.85904775493612  15.814537690636651  -165.5958576892079  25.019971577687382  166.1708891724958  18.14962532036639  120.000000
0.28900000000000003  0.000000  0.000000  0.000000  -39.74585052739538  -0.29943002830388676  -19.24072058879146  49.653497094897176  21.66371794323429  16.55547386440139  -167.01192792598658  27.34758141668616  165.58979082854472  17.854988689684824  120.000000
0.31790000000000007  0.000000  0.000000  0.000000  -39.65735309740712  -0.023253962507254287  -19.3651408804189  50.26840330406793  21.360907440129207  17.142435610842362  -168.4262849696109  29.446279928163733  165.11196874367715  17.617899210201674  120.000000
0.34680000000000005  0.000000  0.000000  0.000000  -39.56058918444829  0.2186636740537739  -19.383789280788466  50.833056624002595  20.967892773561836  17.591793102612154  -169.83446342995617  31.297233876237538  164.7380842263241  17.439629971853805  120.000000
0.3757000000000001  0.000000  0.000000  0.000000  -39.452312031109656  0.430096268068074  -19.314934552582972  51.32922152006941  20.502651804988  17.915161192184776  -171.2359495575257  32.87779053701112  164.47009527976584  17.320875139325594  120.000000
0.40460000000000007  0.000000  0.000000  0.000000  -39.3309040056288  0.6122123184738726  -19.175553567462632  51.74305923703845  19.983829943341824  18.121141364632273  -172.6330541852326  34.16320420251713  164.31219014485217  17.26237024714525  120.000000
0.4335000000000001  0.000000  0.000000  0.000000  -39.19533728039016  0.7630218303136598  -18.98138909701205  52.06570318783986  19.42992178972029  18.215037389510364  -174.0336620144105  35.12516523315338  164.27224846051934  17.265600404599592  120.000000
0.4624000000000001  0.000000  0.000000  0.000000  -39.04527867198063  0.8768614809392865  -18.745788288623146  52.29253364282251  18.858512343713333  18.202689009010175  -175.44554897423757  35.73248651237397  164.35728913013844  17.33026959433136  120.000000
0.49130000000000007  0.000000  0.000000  0.000000  -38.88089927615778  0.9454451910108644  -18.480066549165816  52.419196409207956  18.2852349015575  18.091407256341768  -176.87413692721387  35.95469872105803  164.5723220667504  17.45580143307424  120.000000
0.5202000000000001  0.000000  0.000000  0.000000  -38.702578865036834  0.9611490423138278  -18.19471704415108  52.44703086078388  17.72169500797208  17.888657078146238  -178.32701258581048  35.76370169616735  164.92291103536982  17.64196766362343  120.000000
0.5491000000000001  0.000000  0.000000  0.000000  -38.51013023066924  0.9188716167754407  -17.902397742910956  52.38433986922314  17.175791168507935  17.598953614414455  -179.8241592056593  35.134141666187894  165.42565643825824  17.888648915094166  120.000000
0.5780000000000001  0.000000  0.000000  0.000000  -38.3041132233784  0.8160014025197437  -17.613808673683994  52.24517120546605  16.65206044332825  17.22525445970012  178.6035538586243  34.04580180625238  166.10654641189188  18.19586918648723  120.000000
0.6069000000000001  0.000000  0.000000  0.000000  -38.085993307342825  0.6532596495094879  -17.33657779123607  52.042593016357195  16.15272704569998  16.77536053856123  176.9171595679887  32.485595120249464  167.00156244784148  18.562665305040625  120.000000
0.6358000000000001  0.000000  0.000000  0.000000  -37.858166080436504  0.4377025312654093  -17.074638599772  51.788389025026845  15.677344587214398  16.263268066350467  175.0570082803694  30.449459916313142  168.16569016003564  18.985998831948184  120.000000
0.6647000000000002  0.000000  0.000000  0.000000  -37.62183389639169  0.18294936482767055  -16.828981116935353  51.491764508226716  15.225030982307844  15.7063902192929  172.92492550299707  27.94724842818352  169.6922385727211  19.46220105801205  120.000000
0.6936000000000001  0.000000  0.000000  0.000000  -37.3753612407225  -0.09208137497941084  -16.59821807545661  51.16354465339385  14.796293903338237  15.124767163467904  170.3586309100535  25.002758613071034  171.73805694146446  19.984564345745795  120.000000
0.7225000000000001  0.000000  0.000000  0.000000  -37.1205558915304  -0.36095048876206826  -16.37803754811063  50.81244467348677  14.392670309336609  14.540549617506334  167.0702590895741  21.65956215748106  174.58440724945535  20.54166671563978  120.000000
0.7514000000000002  0.000000  0.000000  0.000000  -36.86677301761657  -0.5907703718137373  -16.16540356201536  50.44596433178115  14.01540074264971  13.978777812965625  162.50017293738782  17.98903512764629  178.78332496173914  21.121624693625748  120.000000
0.7803000000000001  0.000000  0.000000  0.000000  -36.630423960318595  -0.7501247648545531  -15.958744993013553  50.071383007725984  13.66178811407552  13.465146542647636  155.42763376672175  14.114196891658548  -174.4490981079118  21.711908414874927  120.000000
0.8092000000000001  0.000000  0.000000  0.000000  -36.43723724936128  -0.8189720553023844  -15.756627345242597  49.69163629773895  13.32811884187222  13.020888991436903  142.81966842198244  10.298547111473464  -162.08075453512242  22.29865456239167  120.000000
0.8381000000000002  0.000000  0.000000  0.000000  -36.32336050078116  -0.7879487003994876  -15.555407613816891  49.312101610812945  13.012164812804848  12.660741528146465  117.16056872624245  7.28111620645326  -136.59616874808657  22.86736051953086  120.000000
0.8670000000000002  0.000000  0.000000  0.000000  -36.32480078643028  -0.647238112414336  -15.349472828106824  48.94861032056837  12.715717407825721  12.392275671713698  75.27696814870478  6.875367777973066  -94.82410484552955  23.404615495639234  120.000000
0.8959000000000001  0.000000  0.000000  0.000000  -36.46857568305482  -0.3851962075054971  -15.128857390767745  48.62333611138064  12.442304353071036  12.218661844158664  44.197825428884705  9.689145222723596  -63.794186715405004  23.898741138254792  120.000000
0.9248000000000002  0.000000  0.000000  0.000000  -36.77281445313325  0.0011090753514074218  -14.879288685302985  48.35416400525283  12.197651893860945  12.13971068550236  29.11754798456745  13.982112538940562  -48.699147847592975  24.336702091324266  120.000000
0.9537000000000002  0.000000  0.000000  0.000000  -37.24455817460714  0.49932031398046395  -14.583289675108356  48.155821965085366  11.991100235757031  12.14631730632179  21.24091688263188  18.776758999489058  -40.745039526842355  24.70244118519881  120.000000
0.9826000000000001  0.000000  0.000000  0.000000  -37.87757885032757  1.0852235575715552  -14.222417363970122  48.03811358075526  11.834868218169525  12.220718991635584  16.52796029802254  23.738570311357993  -35.89381006082553  24.978321839772388  120.000000
1.0115000000000003  0.000000  0.000000  0.000000  -38.65345172924321  1.730613523752768  -13.779463224402527  48.00431945822494  11.738697825519315  12.340435878483355  13.39609725009838  28.72218628293998  -32.566043368666016  25.147194822311565  120.000000
1.0404000000000002  0.000000  0.000000  0.000000  -39.546000711144764  2.4057352902377214  -13.240308844004442  48.05179995066217  11.707841414214478  12.478293864686774  11.147724214517996  33.64430534250334  -30.0680546049834  25.19453612479624  120.000000
1.0693000000000001  0.000000  0.000000  0.000000  -40.524619521778156  3.079193319589951  -12.593967843155976  48.170332327103964  11.742272343851743  12.602747851361814  9.43664746571096  38.44706195787798  -28.05909324830699  25.108555957880565  120.000000
1.0982000000000003  0.000000  0.000000  0.000000  -41.553350460604655  3.722434235281266  -11.835714859424941  48.34295200077165  11.836084903793795  12.68457150347846  8.07358612180718  43.084957194936756  -26.357754986759147  24.878226586713378  120.000000
1.1271000000000002  0.000000  0.000000  0.000000  -42.590718021588664  4.309760097628635  -10.965738550068178  48.54963527783577  11.980276424511631  12.698319800487841  6.950536865206274  47.51914017568453  -24.862921676239516  24.500963423405206  120.000000
1.1560000000000001  0.000000  0.000000  0.000000  -43.59388517077167  4.817000222945019  -9.98874572298596  48.774270180212376  12.165294092451154  12.623327310342383  6.006284426397642  51.71717091610318  -23.516406425533127  23.989538214551214  120.000000
1.1849000000000003  0.000000  0.000000  0.000000  -44.52394475393876  5.226285156901219  -8.91348695084647  49.00768589439795  12.378422722677188  12.446014925860556  5.207925226082742  55.6496973549699  -22.28427451281995  23.366273472238674  120.000000
